<svg width="17" height="16" viewBox="0 0 17 16" fill="none" xmlns="http://www.w3.org/2000/svg">
<path d="M2.47461 6L14.4746 6" stroke="#171A1F" stroke-width="0.8" stroke-linecap="round" stroke-linejoin="round"/>
<path d="M13.2746 3.59998L3.67461 3.59998C3.35635 3.59998 3.05112 3.7264 2.82608 3.95145C2.60104 4.17649 2.47461 4.48172 2.47461 4.79998L2.47461 12C2.47461 12.3182 2.60104 12.6235 2.82608 12.8485C3.05112 13.0735 3.35635 13.2 3.67461 13.2L13.2746 13.2C13.5929 13.2 13.8981 13.0735 14.1231 12.8485C14.3482 12.6235 14.4746 12.3182 14.4746 12L14.4746 4.79998C14.4746 4.48172 14.3482 4.17649 14.1231 3.95145C13.8981 3.7264 13.5929 3.59998 13.2746 3.59998Z" stroke="#171A1F" stroke-width="0.8" stroke-linecap="round" stroke-linejoin="round"/>
<path d="M5.6748 2V3.6" stroke="#171A1F" stroke-width="0.8" stroke-linecap="round" stroke-linejoin="round"/>
<path d="M11.2744 2V3.6" stroke="#171A1F" stroke-width="0.8" stroke-linecap="round" stroke-linejoin="round"/>
</svg>
