<svg width="21" height="20" viewBox="0 0 21 20" fill="none" xmlns="http://www.w3.org/2000/svg">
<path d="M17.6916 8.6365L10.5326 8.6365V11.7045L14.5901 11.7045C13.9401 13.75 12.3401 14.432 10.5001 14.432C9.78718 14.4329 9.0846 14.2619 8.45192 13.9334C7.81924 13.6049 7.27514 13.1286 6.86578 12.545C6.45642 11.9614 6.19389 11.2876 6.10045 10.5809C6.00702 9.87417 6.08544 9.15533 6.32906 8.48537C6.57269 7.81542 6.97432 7.21412 7.4999 6.73249C8.02547 6.25086 8.65947 5.90311 9.34809 5.71876C10.0367 5.53441 10.7597 5.51889 11.4556 5.67352C12.1515 5.82815 12.7998 6.14837 13.3456 6.607L15.5751 4.4835C14.6773 3.65654 13.5912 3.06121 12.4111 2.74919C11.231 2.43716 9.99266 2.41787 8.80345 2.69299C7.61424 2.96811 6.51015 3.52933 5.58702 4.32792C4.66389 5.12651 3.94963 6.13834 3.50623 7.27558C3.06283 8.41282 2.9037 9.64109 3.04265 10.8538C3.1816 12.0665 3.61444 13.2269 4.30358 14.2344C4.99272 15.2418 5.91734 16.0659 6.99718 16.635C8.07702 17.2041 9.27944 17.501 10.5001 17.5C14.6356 17.5 18.3736 14.7725 17.6916 8.6365Z" fill="#C71610"/>
</svg>
