<svg width="45" height="45" viewBox="0 0 45 45" fill="none" xmlns="http://www.w3.org/2000/svg">
<path d="M23.3435 16.8612V13.8647C23.3435 13.4281 23.1701 13.0093 22.8613 12.7006C22.5526 12.3918 22.1338 12.2184 21.6972 12.2184L13.847 12.2184C13.4104 12.2184 12.9916 12.3918 12.6829 12.7006C12.3741 13.0093 12.2007 13.4281 12.2007 13.8647L12.2007 20.7863C12.2007 21.223 12.3741 21.6417 12.6829 21.9505C12.9916 22.2592 13.4104 22.4327 13.847 22.4327H14.0578V24.2898L16.8435 22.4327L18.7007 22.4327" stroke="#73777B" stroke-width="2.22857" stroke-miterlimit="10" stroke-linecap="square"/>
<path d="M31.038 19.6469L23.0783 19.6469C22.6417 19.6621 22.229 19.8499 21.9307 20.1689C21.6323 20.488 21.4727 20.9123 21.4867 21.3489L21.4867 28.1591C21.4727 28.5957 21.6323 29.02 21.9307 29.3391C22.229 29.6581 22.6417 29.8459 23.0783 29.8611L27.9867 29.8611L30.7724 31.7183V29.8611H31.038C31.4745 29.8459 31.8872 29.6581 32.1856 29.3391C32.4839 29.02 32.6436 28.5957 32.6295 28.1591V21.3489C32.6436 20.9123 32.4839 20.488 32.1856 20.1689C31.8872 19.8499 31.4745 19.6621 31.038 19.6469Z" stroke="#73777B" stroke-width="2.22857" stroke-miterlimit="10" stroke-linecap="square"/>
<path d="M20.8245 16.0376C20.5385 16.0116 20.285 15.9986 19.896 15.9986C19.8038 16.4345 19.6552 16.8565 19.454 17.254C19.2615 17.6356 19.0188 17.9898 18.7325 18.307C19.4186 18.7086 20.1749 18.9759 20.961 19.0945C20.6826 19.4553 20.4653 19.8593 20.3175 20.2905C19.4318 20.0405 18.5956 19.64 17.8457 19.1065C17.0581 19.6512 16.1827 20.0564 15.2577 20.3044C15.1181 19.8871 14.9066 19.4974 14.6328 19.153C15.4461 19.0055 16.2273 18.717 16.9412 18.3005C16.6129 17.9414 16.3321 17.5416 16.1055 17.111C15.9175 16.7563 15.7672 16.3828 15.657 15.9967C15.2735 15.9967 15.0516 16.0097 14.7285 16.0357L14.7285 14.8602C15.0418 14.8938 15.3568 14.909 15.6719 14.9057L17.1037 14.9057V14.5157C17.1051 14.3803 17.092 14.2452 17.0647 14.1127H18.3722C18.346 14.2432 18.3329 14.376 18.3332 14.5092V14.9057H19.8811C20.1962 14.9092 20.5112 14.894 20.8245 14.8602V16.0376ZM16.9022 15.9986C17.0703 16.5922 17.3833 17.1347 17.8132 17.5772C18.2089 17.1252 18.4878 16.5833 18.6257 15.9986H16.9022Z" fill="#73777B"/>
<path d="M28.3293 27.4942L28.0349 26.38H26.097L25.7952 27.4942H24.0244L25.9707 21.504L28.1213 21.504L30.0917 27.4942L28.3293 27.4942ZM27.7006 25.054L27.4434 24.0752C27.3815 23.8573 27.3088 23.5757 27.2252 23.2302C27.1416 22.8848 27.0853 22.6372 27.0562 22.4874C27.0311 22.6257 26.9828 22.8588 26.9113 23.1727C26.8398 23.4865 26.6792 24.118 26.4313 25.054H27.7006Z" fill="#73777B"/>
</svg>
