<svg width="21" height="20" viewBox="0 0 21 20" fill="none" xmlns="http://www.w3.org/2000/svg">
<path d="M18.5 9.99997C18.4998 8.47118 18.0615 6.97447 17.237 5.68703C16.4126 4.3996 15.2365 3.37534 13.8481 2.73553C12.4596 2.09572 10.9169 1.86714 9.40257 2.07686C7.88823 2.28657 6.4657 2.9258 5.30337 3.91887C4.14104 4.91194 3.2876 6.21726 2.84407 7.68029C2.40054 9.14333 2.38551 10.7028 2.80075 12.1741C3.21599 13.6454 4.04411 14.967 5.18708 15.9823C6.33004 16.9976 7.73999 17.6641 9.25 17.903L9.25 12.3125L7.219 12.3125L7.219 9.99997H9.25V8.23747C9.25 6.23247 10.4445 5.12497 12.2715 5.12497C12.8715 5.13329 13.4701 5.18543 14.0625 5.28097V7.24997H13.0535C12.8816 7.22713 12.7067 7.24328 12.5418 7.29722C12.377 7.35115 12.2264 7.44149 12.1012 7.56154C11.976 7.6816 11.8794 7.82828 11.8186 7.99073C11.7578 8.15317 11.7344 8.32722 11.75 8.49997V9.99997L13.969 9.99997L13.614 12.3125H11.75L11.75 17.903C13.6319 17.6053 15.3458 16.6457 16.5832 15.1969C17.8206 13.7481 18.5003 11.9053 18.5 9.99997Z" fill="#335CA6"/>
</svg>
