<svg width="17" height="16" viewBox="0 0 17 16" fill="none" xmlns="http://www.w3.org/2000/svg">
<path d="M14.6821 4.5856L11.889 1.7931C11.7961 1.70021 11.6859 1.62653 11.5645 1.57626C11.4432 1.526 11.3131 1.50012 11.1818 1.50012C11.0505 1.50012 10.9204 1.526 10.7991 1.57626C10.6777 1.62653 10.5675 1.70021 10.4746 1.7931L2.76774 9.49997C2.67448 9.59249 2.60054 9.70263 2.55021 9.82398C2.49989 9.94533 2.47419 10.0755 2.47461 10.2068L2.47461 13C2.47461 13.2652 2.57997 13.5195 2.76751 13.7071C2.95504 13.8946 3.2094 14 3.47461 14L13.9746 14C14.1072 14 14.2344 13.9473 14.3282 13.8535C14.4219 13.7598 14.4746 13.6326 14.4746 13.5C14.4746 13.3674 14.4219 13.2402 14.3282 13.1464C14.2344 13.0526 14.1072 13 13.9746 13L7.68211 13L14.6821 5.99997C14.775 5.90711 14.8487 5.79686 14.8989 5.67552C14.9492 5.55418 14.9751 5.42412 14.9751 5.29278C14.9751 5.16144 14.9492 5.03139 14.8989 4.91005C14.8487 4.78871 14.775 4.67846 14.6821 4.5856ZM8.97461 4.70685L10.0177 5.74997L4.72461 11.0431L3.68149 9.99997L8.97461 4.70685ZM3.47461 13V11.2068L5.26774 13H3.47461ZM6.47461 12.7931L5.43211 11.75L10.7246 6.45685L11.7677 7.49997L6.47461 12.7931ZM12.4746 6.7931L9.68212 3.99997L11.1821 2.49997L13.9746 5.2931L12.4746 6.7931Z" fill="#171A1F"/>
</svg>
