<svg width="101" height="20" viewBox="0 0 101 20" fill="none" xmlns="http://www.w3.org/2000/svg">
<path d="M9.92739 1.83359C10.1628 1.26758 10.9646 1.26759 11.2001 1.8336L13.1364 6.48909C13.2356 6.72771 13.4601 6.89074 13.7176 6.9114L18.7436 7.31432C19.3547 7.36332 19.6025 8.12588 19.1369 8.52466L15.3076 11.8049C15.1114 11.973 15.0256 12.2368 15.0856 12.4882L16.2556 17.3927C16.3978 17.989 15.7491 18.4602 15.226 18.1407L10.923 15.5125C10.7025 15.3778 10.4251 15.3778 10.2046 15.5125L5.90156 18.1407C5.37842 18.4602 4.72973 17.989 4.87197 17.3927L6.04187 12.4882C6.10184 12.2368 6.01613 11.973 5.81986 11.8049L1.99058 8.52466C1.52502 8.12588 1.77279 7.36332 2.38385 7.31432L7.40985 6.9114C7.66745 6.89074 7.89185 6.72771 7.9911 6.48909L9.92739 1.83359Z" fill="url(#paint0_linear_1_151)"/>
<path d="M29.9274 1.83359C30.1628 1.26758 30.9646 1.26759 31.2001 1.8336L33.1364 6.48909C33.2356 6.72771 33.4601 6.89074 33.7176 6.9114L38.7436 7.31432C39.3547 7.36332 39.6025 8.12588 39.1369 8.52466L35.3076 11.8049C35.1114 11.973 35.0256 12.2368 35.0856 12.4882L36.2556 17.3927C36.3978 17.989 35.7491 18.4602 35.226 18.1407L30.923 15.5125C30.7025 15.3778 30.4251 15.3778 30.2046 15.5125L25.9016 18.1407C25.3784 18.4602 24.7297 17.989 24.872 17.3927L26.0419 12.4882C26.1018 12.2368 26.0161 11.973 25.8199 11.8049L21.9906 8.52466C21.525 8.12588 21.7728 7.36332 22.3839 7.31432L27.4099 6.9114C27.6675 6.89074 27.8919 6.72771 27.9911 6.48909L29.9274 1.83359Z" fill="url(#paint1_linear_1_151)"/>
<path d="M49.9274 1.83359C50.1628 1.26758 50.9646 1.26759 51.2001 1.8336L53.1364 6.48909C53.2356 6.72771 53.4601 6.89074 53.7176 6.9114L58.7436 7.31432C59.3547 7.36332 59.6025 8.12588 59.1369 8.52466L55.3076 11.8049C55.1114 11.973 55.0256 12.2368 55.0856 12.4882L56.2556 17.3927C56.3978 17.989 55.7491 18.4602 55.226 18.1407L50.923 15.5125C50.7025 15.3778 50.4251 15.3778 50.2046 15.5125L45.9016 18.1407C45.3784 18.4602 44.7297 17.989 44.872 17.3927L46.0419 12.4882C46.1018 12.2368 46.0161 11.973 45.8199 11.8049L41.9906 8.52466C41.525 8.12588 41.7728 7.36332 42.3839 7.31432L47.4099 6.9114C47.6675 6.89074 47.8919 6.72771 47.9911 6.48909L49.9274 1.83359Z" fill="url(#paint2_linear_1_151)"/>
<path d="M69.9274 1.83359C70.1628 1.26758 70.9646 1.26759 71.2001 1.8336L73.1364 6.48909C73.2356 6.72771 73.4601 6.89074 73.7176 6.9114L78.7436 7.31432C79.3547 7.36332 79.6025 8.12588 79.1369 8.52466L75.3076 11.8049C75.1114 11.973 75.0256 12.2368 75.0856 12.4882L76.2556 17.3927C76.3978 17.989 75.7491 18.4602 75.226 18.1407L70.923 15.5125C70.7025 15.3778 70.4251 15.3778 70.2046 15.5125L65.9016 18.1407C65.3784 18.4602 64.7297 17.989 64.872 17.3927L66.0419 12.4882C66.1018 12.2368 66.0161 11.973 65.8199 11.8049L61.9906 8.52466C61.525 8.12588 61.7728 7.36332 62.3839 7.31432L67.4099 6.9114C67.6675 6.89074 67.8919 6.72771 67.9911 6.48909L69.9274 1.83359Z" fill="url(#paint3_linear_1_151)"/>
<path d="M89.9274 1.83359C90.1628 1.26758 90.9646 1.26759 91.2001 1.8336L93.1364 6.48909C93.2356 6.72771 93.4601 6.89074 93.7176 6.9114L98.7436 7.31432C99.3547 7.36332 99.6025 8.12588 99.1369 8.52466L95.3076 11.8049C95.1114 11.973 95.0256 12.2368 95.0856 12.4882L96.2556 17.3927C96.3978 17.989 95.7491 18.4602 95.226 18.1407L90.923 15.5125C90.7025 15.3778 90.4251 15.3778 90.2046 15.5125L85.9016 18.1407C85.3784 18.4602 84.7297 17.989 84.872 17.3927L86.0419 12.4882C86.1018 12.2368 86.0161 11.973 85.8199 11.8049L81.9906 8.52466C81.525 8.12588 81.7728 7.36332 82.3839 7.31432L87.4099 6.9114C87.6675 6.89074 87.8919 6.72771 87.9911 6.48909L89.9274 1.83359Z" fill="url(#paint4_linear_1_151)"/>
<defs>
<linearGradient id="paint0_linear_1_151" x1="1.74878" y1="1.40909" x2="19.3787" y2="1.40909" gradientUnits="userSpaceOnUse">
<stop offset="0.4999" stop-color="#F3C63F"/>
<stop offset="0.5" stop-color="#F3C63F"/>
</linearGradient>
<linearGradient id="paint1_linear_1_151" x1="21.7488" y1="1.40909" x2="39.3787" y2="1.40909" gradientUnits="userSpaceOnUse">
<stop offset="0.4999" stop-color="#F3C63F"/>
<stop offset="0.5" stop-color="#F3C63F"/>
</linearGradient>
<linearGradient id="paint2_linear_1_151" x1="41.7488" y1="1.40909" x2="59.3787" y2="1.40909" gradientUnits="userSpaceOnUse">
<stop offset="0.4999" stop-color="#F3C63F"/>
<stop offset="0.5" stop-color="#F3C63F"/>
</linearGradient>
<linearGradient id="paint3_linear_1_151" x1="61.7488" y1="1.40909" x2="79.3787" y2="1.40909" gradientUnits="userSpaceOnUse">
<stop offset="0.4999" stop-color="#DEE1E6"/>
<stop offset="0.5" stop-color="#DEE1E6"/>
</linearGradient>
<linearGradient id="paint4_linear_1_151" x1="81.7488" y1="1.40909" x2="99.3787" y2="1.40909" gradientUnits="userSpaceOnUse">
<stop offset="0.4999" stop-color="#DEE1E6"/>
<stop offset="0.5" stop-color="#DEE1E6"/>
</linearGradient>
</defs>
</svg>
