<svg width="17" height="16" viewBox="0 0 17 16" fill="none" xmlns="http://www.w3.org/2000/svg">
<path d="M8.56348 4.40002V8.00002H12.1635" stroke="#15133C" stroke-width="0.96" stroke-miterlimit="10" stroke-linecap="square"/>
<path d="M3.21068 10.7132C3.87479 12.0249 4.99725 13.0472 6.36513 13.5862C7.73301 14.1252 9.25114 14.1434 10.6315 13.6373C12.0119 13.1312 13.1585 12.136 13.8539 10.8406C14.5492 9.54515 14.7448 8.03956 14.4037 6.60945C14.0625 5.17933 13.2084 3.92417 12.0032 3.08208C10.798 2.23999 9.3256 1.86955 7.8654 2.04104C6.40519 2.21253 5.05872 2.91402 4.08143 4.01243C3.10413 5.11083 2.56399 6.52975 2.56348 7.99999" stroke="#15133C" stroke-width="0.96" stroke-miterlimit="10"/>
<path d="M3.61028 13.912L3.21028 10.712L6.41028 11.112" stroke="#15133C" stroke-width="0.96" stroke-miterlimit="10" stroke-linecap="square"/>
</svg>
